<?xml version="1.0" encoding="utf-8"?>
<svg viewBox="0 0 425 425" xmlns="http://www.w3.org/2000/svg">
  <path style="stroke: rgb(46, 48, 63); fill: rgb(60, 78, 194);" d="M 104.932 98.709 L 25.749 167.649 L 8.429 319.59 L 44.695 370.019 L 99.057 372.75 L 136.491 334.057 L 126.249 269.223 L 186.607 288.987 L 212.764 333.593 L 242.804 289.542 L 305.508 265.976 L 291.745 340.822 L 327.464 370.528 L 377.363 371.973 L 417.635 327.743 L 403.763 176.554 L 381.997 141.797 L 308.546 88.441 L 258.179 50.794 L 179.016 46.507 L 133.079 73.535 L 104.932 98.709 Z"/>
  <path style="fill: rgb(216, 216, 216); stroke: rgb(0, 0, 0);" d="M 140.176 347.033 L 178.811 378.383 L 250.03 377.316 L 288.101 345.266 L 309.905 263.604 L 243.897 288.83 L 216.447 329.048 L 200.607 325.365 L 188.411 294.072 L 124.337 267.485 L 140.176 347.033 Z"/>
  <ellipse style="stroke: rgb(0, 0, 0); fill: rgb(216, 216, 216);" cx="173.685" cy="125.873" rx="15.271" ry="15.271"/>
  <ellipse style="stroke: rgb(0, 0, 0); fill: rgb(216, 216, 216);" cx="252.319" cy="125.678" rx="15.271" ry="15.271"/>
  <g transform="matrix(1, 0, 0, 1, -37.500004, -37.499924)">
    <path d="M 460.814 340.801 L 452.56 244.844 L 452.564 244.844 C 449.794 212.953 433.709 183.707 408.255 164.289 L 344.993 116.113 C 324.848 92.304 295.227 78.597 264.044 78.644 L 235.966 78.644 C 204.782 78.597 175.161 92.304 155.017 116.113 L 91.755 164.289 C 66.302 183.707 50.216 212.953 47.446 244.844 L 39.192 340.801 L 39.196 340.801 C 37.485 360.922 44.274 380.84 57.911 395.735 C 85.536 425.84 134.239 426.532 162.711 397.278 C 165.875 394.008 168.722 390.442 171.203 386.63 C 176.355 397.025 184.301 405.778 194.148 411.911 C 203.996 418.044 215.355 421.317 226.957 421.356 L 273.043 421.356 C 284.641 421.317 296 418.048 305.848 411.915 C 315.696 405.782 323.637 397.032 328.793 386.638 C 331.281 390.446 334.125 394.009 337.289 397.279 C 365.762 426.537 414.469 425.845 442.089 395.736 C 455.726 380.841 462.515 360.924 460.804 340.802 L 460.814 340.801 Z M 152.684 387.512 C 129.7 411.129 90.5 410.535 68.227 386.27 C 57.153 374.317 51.668 358.227 53.141 341.997 L 61.395 246.044 C 63.82 218.087 77.926 192.45 100.239 175.431 L 136.278 147.986 L 136.278 147.982 C 129.332 166.677 127.805 186.955 131.875 206.478 L 165.25 367.808 C 162.453 375.167 158.176 381.874 152.684 387.515 L 152.684 387.512 Z M 320.234 368.934 L 320.23 368.934 C 317.952 379.77 312.027 389.5 303.437 396.493 C 294.851 403.485 284.125 407.321 273.05 407.356 L 226.964 407.356 C 215.89 407.321 205.163 403.485 196.577 396.493 C 187.987 389.501 182.061 379.77 179.784 368.934 L 168.679 315.254 L 204.05 327.442 C 214.667 331.106 223.007 339.454 226.667 350.071 C 223.811 351.973 221.866 354.973 221.303 358.356 C 220.737 361.743 221.604 365.212 223.69 367.934 L 240.335 389.215 L 240.331 389.215 C 242.687 392.149 246.245 393.856 250.007 393.856 C 253.769 393.856 257.327 392.149 259.683 389.215 L 276.324 367.93 L 276.328 367.934 C 278.414 365.207 279.277 361.739 278.711 358.356 C 278.148 354.969 276.207 351.973 273.347 350.071 C 277.007 339.454 285.347 331.106 295.964 327.442 L 331.335 315.254 L 320.234 368.934 Z M 291.406 314.204 C 275.797 319.571 263.793 332.22 259.25 348.087 L 240.766 348.087 C 236.223 332.22 224.219 319.571 208.61 314.204 L 165.38 299.309 L 145.587 203.641 C 136.641 160.395 160.669 115.579 201.712 99.201 L 201.712 99.197 C 212.614 94.865 224.239 92.638 235.97 92.642 L 264.044 92.642 C 307.306 92.642 345.782 123.915 354.489 166.361 L 354.493 166.361 C 356.996 178.662 356.977 191.345 354.43 203.634 L 334.637 299.306 L 291.406 314.204 Z M 431.786 386.27 C 409.513 410.536 370.313 411.129 347.329 387.512 C 341.836 381.879 337.559 375.184 334.755 367.836 L 368.138 206.476 C 372.204 186.953 370.681 166.675 363.735 147.98 L 399.774 175.429 C 422.086 192.449 436.192 218.085 438.618 246.042 L 446.872 341.995 C 448.345 358.222 442.861 374.315 431.786 386.268 L 431.786 386.27 Z" style="fill: rgb(46, 48, 63);"/>
    <path d="M 197.314 203.801 C 192.927 203.805 188.724 205.551 185.626 208.649 C 182.524 211.75 180.782 215.953 180.774 220.337 L 180.774 231.982 C 180.774 237.892 183.926 243.349 189.044 246.306 C 194.161 249.259 200.466 249.259 205.583 246.306 C 210.696 243.349 213.848 237.891 213.848 231.982 L 213.848 220.341 C 213.844 215.954 212.102 211.751 209 208.65 C 205.899 205.552 201.696 203.806 197.312 203.802 L 197.314 203.801 Z" style="fill: rgb(46, 48, 63);"/>
    <path d="M 302.694 203.801 C 298.311 203.805 294.108 205.551 291.006 208.649 C 287.904 211.75 286.162 215.953 286.158 220.337 L 286.158 231.982 C 286.158 237.892 289.31 243.349 294.424 246.306 C 299.541 249.259 305.846 249.259 310.963 246.306 C 316.08 243.349 319.232 237.891 319.232 231.982 L 319.232 220.341 C 319.224 215.954 317.482 211.751 314.38 208.65 C 311.283 205.552 307.08 203.806 302.692 203.802 L 302.694 203.801 Z" style="fill: rgb(46, 48, 63);"/>
    <path d="M 211.034 137.841 C 203.764 137.841 196.815 140.833 191.823 146.118 C 186.83 151.403 184.237 158.509 184.651 165.766 C 185.069 173.024 188.455 179.789 194.018 184.469 C 212.545 200.098 241.37 183.344 237.034 159.524 L 237.03 159.524 C 235.87 153.462 232.647 147.989 227.909 144.036 C 223.167 140.083 217.206 137.896 211.034 137.841 Z M 211.034 176.693 C 206.049 176.697 201.549 173.724 199.593 169.142 C 197.64 164.556 198.612 159.251 202.065 155.658 C 205.519 152.065 210.78 150.885 215.436 152.654 C 220.097 154.424 223.245 158.806 223.44 163.783 C 223.534 167.15 222.272 170.408 219.94 172.838 C 217.608 175.264 214.397 176.654 211.034 176.693 Z" style="fill: rgb(46, 48, 63);"/>
    <path d="M 315.404 164.271 C 315.408 157.001 312.415 150.052 307.13 145.064 C 301.845 140.072 294.735 137.474 287.482 137.892 C 280.224 138.306 273.459 141.693 268.775 147.255 C 253.146 165.782 269.9 194.607 293.72 190.271 L 293.724 190.271 C 299.783 189.111 305.255 185.885 309.208 181.146 C 313.161 176.408 315.353 170.443 315.403 164.271 L 315.404 164.271 Z M 276.552 164.271 L 276.556 164.271 C 276.552 159.29 279.524 154.786 284.106 152.833 C 288.688 150.88 293.997 151.852 297.586 155.302 C 301.18 158.755 302.364 164.02 300.594 168.677 C 298.821 173.333 294.442 176.485 289.461 176.677 C 286.098 176.77 282.836 175.513 280.41 173.177 C 277.985 170.845 276.594 167.638 276.555 164.27 L 276.552 164.271 Z" style="fill: rgb(46, 48, 63);"/>
  </g>
</svg>
